<?xml version="1.0" encoding="UTF-8" standalone="no"?>
<!DOCTYPE svg PUBLIC "-//W3C//DTD SVG 1.1//EN" "http://www.w3.org/Graphics/SVG/1.1/DTD/svg11.dtd">
<svg version="1.1" xmlns="http://www.w3.org/2000/svg" xmlns:xlink="http://www.w3.org/1999/xlink" preserveAspectRatio="xMidYMid meet" viewBox="0 0 200 200" width="200" height="200"><defs><path d="M144.82 140.9L140.78 136.41L177.16 101.09L140.78 63.59L144.82 59.1L185.49 101.09L144.82 140.9ZM21.49 101.09L55.58 136.41L51.8 140.9L13.68 101.09L51.8 59.1L55.58 63.59L21.49 101.09ZM100.27 107.79L100.27 94.39L115.31 94.39L115.31 107.79L100.27 107.79ZM55.58 107.79L55.58 94.39L70.62 94.39L70.62 107.79L55.58 107.79ZM77.93 107.79L77.93 94.39L92.97 94.39L92.97 107.79L77.93 107.79ZM125.74 107.79L125.74 94.39L140.78 94.39L140.78 107.79L125.74 107.79Z" id="aaLZPUtRI"></path></defs><g><g><g><use xlink:href="#aaLZPUtRI" opacity="1" fill="#34343e" fill-opacity="1"></use><g><use xlink:href="#aaLZPUtRI" opacity="1" fill-opacity="0" stroke="#000000" stroke-width="1" stroke-opacity="0"></use></g></g></g></g></svg>