<svg xmlns="http://www.w3.org/2000/svg" width="141" height="21" style=""><rect id="backgroundrect" width="100%" height="100%" x="0" y="0" fill="none" stroke="none"/><g class="currentLayer" style=""><title>Layer 1</title><path fill="#000000" d="M0 15V0h18l3 3v12h-3V3H3v12zM30 0v3h12v3H27l-3 3v3l3 3h18V3l-3-3zm-3 9h15v3H27zm21-9v6l9 9 9-9V0h-3v5l-6 6-6-6V0zm21 0v15h3V0z" id="svg_1" class="" fill-opacity="1"/><path fill="#0bd5d5" d="M75 15v-3h18V9H78l-3-3V3l3-3h12v3H78v3h15l3 3v3l-3 3zM99 0v21h3v-6h12l3-3V3l-3-3zm3 3h12v9h-12zm18-3h3v12h15V0h3v18l-3 3h-12v-3h12v-3h-15l-3-3z" id="svg_2" class="" fill-opacity="1"/></g></svg>