<svg xmlns="http://www.w3.org/2000/svg" width="705" height="105" style=""><rect id="backgroundrect" width="100%" height="100%" x="0" y="0" fill="none" stroke="none"/><g class="currentLayer" style=""><title>Layer 1</title><path fill="#000000" d="M0,74.27716255187988 V0 h89.13259506225586 l14.855432510375977,14.855432510375977 v59.421730041503906 h-14.855432510375977 V14.855432510375977 H14.855432510375977 v59.421730041503906 zM148.55432510375977,0 v14.855432510375977 h59.421730041503906 v14.855432510375977 H133.6988925933838 l-14.855432510375977,14.855432510375977 v14.855432510375977 l14.855432510375977,14.855432510375977 h89.13259506225586 V14.855432510375977 l-14.855432510375977,-14.855432510375977 zm-14.855432510375977,44.56629753112793 h74.27716255187988 v14.855432510375977 H133.6988925933838 zm103.98802757263184,-44.56629753112793 v29.710865020751953 l44.56629753112793,44.56629753112793 l44.56629753112793,-44.56629753112793 V0 h-14.855432510375977 v24.75905418395996 l-29.710865020751953,29.710865020751953 l-29.710865020751953,-29.710865020751953 V0 zm103.98802757263184,0 v74.27716255187988 h14.855432510375977 V0 z" id="svg_1" class="" fill-opacity="1"/><path fill="#3688D1" d="M376.6574549674988,74.39226865768433 v-14.878453731536865 h89.27072238922119 V44.635361194610596 H391.5359086990357 l-14.878453731536865,-14.878453731536865 V14.878453731536865 l14.878453731536865,-14.878453731536865 h59.51381492614746 v14.878453731536865 H391.5359086990357 v14.878453731536865 h74.39226865768433 l14.878453731536865,14.878453731536865 v14.878453731536865 l-14.878453731536865,14.878453731536865 zM495.6850848197937,0 v104.14917612075806 h14.878453731536865 v-29.75690746307373 h59.51381492614746 l14.878453731536865,-14.878453731536865 V14.878453731536865 l-14.878453731536865,-14.878453731536865 zm14.878453731536865,14.878453731536865 h59.51381492614746 v44.635361194610596 h-59.51381492614746 zm89.27072238922119,-14.878453731536865 h14.878453731536865 v59.51381492614746 h74.39226865768433 V0 h14.878453731536865 v89.27072238922119 l-14.878453731536865,14.878453731536865 h-59.51381492614746 v-14.878453731536865 h59.51381492614746 v-14.878453731536865 h-74.39226865768433 l-14.878453731536865,-14.878453731536865 z" class="" fill-opacity="1" id="svg_3"/></g></svg>